<?xml version="1.0" encoding="utf-8"?>
<!-- Generator: Adobe Illustrator 26.3.1, SVG Export Plug-In . SVG Version: 6.00 Build 0)  -->
<svg version="1.1" id="Layer_1" xmlns="http://www.w3.org/2000/svg" xmlns:xlink="http://www.w3.org/1999/xlink" x="0px" y="0px"
	 viewBox="0 0 597.72 100" style="enable-background:new 0 0 597.72 100;" xml:space="preserve">
<style type="text/css">
	.st0{fill-rule:evenodd;clip-rule:evenodd;fill:#FEC600;}
	.st1{fill-rule:evenodd;clip-rule:evenodd;fill:#FFFFFF;}
</style>
<g id="Logo">
	<path id="YEL" class="st0" d="M259.8,83.46h28.82v16.53h-38.9C253.89,95.88,257.19,90.39,259.8,83.46 M0,83.47l209.23-0.01v16.53
		L0,100V83.47z"/>
	<path id="WHT" class="st1" d="M561.93,0c-19.9,0-36.22,16.74-36.22,37.19c0,20.44,16.32,36.9,36.22,36.9
		c17.55,0,30.05-9.74,34.16-24.15h-19.35c-3.02,5.62-8.92,8.24-14.95,8.24c-8.51,0-15.37-5.36-17.7-14h53.37
		C600.07,16.19,582.79,0,561.93,0z M544.37,29.36c2.6-8.23,9.19-13.45,17.42-13.45c8.64,0,15.51,5.22,17.69,13.45H544.37z
		 M520.25,31.15C520.25,12.62,509.26,0,490.33,0c-9.05,0-16.46,3.84-21.54,10.02C463.85,3.71,456.45,0,447.66,0
		c-7.68,0-13.86,3.29-18.24,8.65V1.79h-17.44v70.66h18.25v-41.3c0-7.96,5.63-13.99,13.59-13.99c11.94,0,13.17,9.88,13.17,13.99v41.3
		h18.26v-41.3c0-7.96,5.62-13.99,13.71-13.99c11.8,0,13.18,9.88,13.18,13.99v41.3h18.11V31.15z M404.42,60.92V24.15
		c0-5.62-2.19-24.15-30.87-24.15c-18.53,0-31.43,10.02-33.21,23.47h18.11c1.65-6.03,9.06-8.92,15.51-8.92
		c8.09,0,12.89,3.02,12.89,6.72c0,5.77-8.37,7.14-20.16,8.24c-15.64,1.37-28.95,5.48-28.95,21.4c0,15.37,13.72,22.91,28.67,22.91
		c9.89,0,17.02-3.01,21.68-7.96c0.41,2.61,0.96,4.8,1.79,6.59h16.6C405.52,69.7,404.42,64.35,404.42,60.92z M387.55,45.01
		c0,9.05-8.79,12.75-19.63,12.75c-7.27,0-11.93-2.74-11.93-6.72c0-5.21,5.49-7.13,14.41-8.09c7.4-0.82,13.31-2.06,17.15-4.52V45.01z
		 M333.62,31.15C333.62,12.49,322.65,0,306.04,0c-7.54,0-13.72,3.29-18.24,8.65l-17.3,46.18v17.63h18.11v-41.3
		c0-7.96,5.63-13.99,13.72-13.99c11.94,0,13.17,9.88,13.17,13.99v41.3h18.11V31.15z M260.96,1.85l-16.85,50.98L226.84,1.85h-19.18
		l27.26,71.8c-2.7,7.25-6.39,9.76-13.64,9.81v0h-0.09h-0.28h-2.29v0.19v16.17v0.17h4.01c12.76,0.2,22.24-3.38,28.46-20.04
		l29.19-78.1H260.96z M148.48,22.68c0,15.76,16.86,19.18,29.46,21.1c12.33,1.92,14.8,3.56,14.8,7.54c0,4.11-5.48,6.31-12.74,6.31
		c-5.35,0-12.61-2.2-15.08-8.23h-18.36c2.19,15.21,15.48,24.67,33.44,24.67c18.09,0,30.97-9.87,30.97-23.84
		c0-15.35-12.6-19.19-30.14-22.06c-8.78-1.37-13.98-2.6-13.98-6.3c0-2.6,3.43-5.62,11.79-5.62c6.72,0,10.69,2.6,11.79,5.89h18.78
		C206.86,8.84,194.8,0.07,178.63,0.07C158.21,0.07,148.48,11.58,148.48,22.68z M142.18,60.91V24.18c0-5.61-2.2-24.11-30.83-24.11
		c-18.49,0-31.38,10-33.16,23.43h18.09c1.65-6.03,9.05-8.91,15.49-8.91c8.08,0,12.88,3.01,12.88,6.71c0,5.76-8.36,7.13-20.14,8.22
		c-15.63,1.37-28.92,5.48-28.92,21.38c0,15.35,13.71,22.88,28.65,22.88c9.86,0,16.99-3.02,21.64-7.95c0.4,2.6,0.96,4.79,1.78,6.57
		h16.58C143.29,69.68,142.18,64.33,142.18,60.91z M125.33,45.02c0,9.04-8.77,12.74-19.6,12.74c-7.26,0-11.92-2.74-11.92-6.72
		c0-5.2,5.48-7.12,14.39-8.08c7.4-0.82,13.29-2.05,17.13-4.52V45.02z M36.18,0.07C16.31,0.07,0,16.78,0,37.2
		c0,20.42,16.31,36.86,36.18,36.86c17.54,0,30.01-9.73,34.12-24.12H50.98c-3.01,5.62-8.91,8.22-14.93,8.22
		c-8.5,0-15.35-5.34-17.68-13.98h53.3C74.27,16.24,57.01,0.07,36.18,0.07z M18.64,29.4c2.6-8.23,9.18-13.43,17.4-13.43
		c8.63,0,15.49,5.2,17.68,13.43H18.64z"/>
</g>
</svg>
